<!DOCTYPE svg PUBLIC "-//W3C//DTD SVG 1.1//EN" "http://www.w3.org/Graphics/SVG/1.1/DTD/svg11.dtd">
<!-- Uploaded to: SVG Repo, www.svgrepo.com, Transformed by: SVG Repo Mixer Tools -->
<svg fill="#ffffff" height="800px" width="800px" version="1.1" id="Layer_1" xmlns="http://www.w3.org/2000/svg" xmlns:xlink="http://www.w3.org/1999/xlink" viewBox="-56.32 -56.32 624.64 624.64" enable-background="new 0 0 512 512" xml:space="preserve" stroke="#ffffff" stroke-width="15.872">
<g id="SVGRepo_bgCarrier" stroke-width="0"/>
<g id="SVGRepo_tracerCarrier" stroke-linecap="round" stroke-linejoin="round"/>
<g id="SVGRepo_iconCarrier"> <path d="M256,0C114.6,0,0,114.6,0,256s114.6,256,256,256s256-114.6,256-256S397.4,0,256,0z M256,472.6 c-119.6,0-216.6-97-216.6-216.6S136.4,39.4,256,39.4s216.6,97,216.6,216.6S375.6,472.6,256,472.6z M118.2,393.8l187.1-88.6 l88.6-187.1l-187.1,88.6L118.2,393.8z M285.5,285.5l-118.2,59.1l59.1-118.2L285.5,285.5z"/> </g>
</svg>