<!DOCTYPE svg PUBLIC "-//W3C//DTD SVG 1.1//EN" "http://www.w3.org/Graphics/SVG/1.1/DTD/svg11.dtd">
<!-- Uploaded to: SVG Repo, www.svgrepo.com, Transformed by: SVG Repo Mixer Tools -->
<svg fill="#ffffff" height="800px" width="800px" version="1.1" id="Layer_1" xmlns="http://www.w3.org/2000/svg" xmlns:xlink="http://www.w3.org/1999/xlink" viewBox="0 0 512 512" xml:space="preserve">
<g id="SVGRepo_bgCarrier" stroke-width="0"/>
<g id="SVGRepo_tracerCarrier" stroke-linecap="round" stroke-linejoin="round"/>
<g id="SVGRepo_iconCarrier"> <g> <g> <path d="M512,405.854V31.219H0v374.634h187.317v37.463H143.61v37.463H368.39v-37.463h-43.707v-37.463H512z M287.219,443.317 h-62.439v-37.463h62.439V443.317z M37.463,368.39V68.683h437.073V368.39H37.463z"/> </g> </g> <g> <g> <path d="M253.793,199.805c-8.482-35.754-40.654-62.439-78.964-62.439c-44.758,0-81.171,36.413-81.171,81.171 c0,44.758,36.413,81.171,81.171,81.171c38.31,0,70.482-26.686,78.964-62.439h52.158v31.219h37.463v-31.219h12.488v43.707h37.463 v-43.707h18.732v-37.463H253.793z M174.829,262.244c-24.1,0-43.707-19.607-43.707-43.707c0-24.1,19.607-43.707,43.707-43.707 s43.707,19.607,43.707,43.707C218.537,242.637,198.93,262.244,174.829,262.244z"/> </g> </g> </g>
</svg>